<?xml version="1.0" encoding="UTF-8" standalone="no"?>
<!-- Created with Inkscape (http://www.inkscape.org/) -->

<svg
   xmlns:dc="http://purl.org/dc/elements/1.1/"
   xmlns:cc="http://creativecommons.org/ns#"
   xmlns:rdf="http://www.w3.org/1999/02/22-rdf-syntax-ns#"
   xmlns:svg="http://www.w3.org/2000/svg"
   xmlns="http://www.w3.org/2000/svg"
   xmlns:sodipodi="http://sodipodi.sourceforge.net/DTD/sodipodi-0.dtd"
   xmlns:inkscape="http://www.inkscape.org/namespaces/inkscape"
   width="210mm"
   height="297mm"
   viewBox="0 0 744.09448819 1052.3622047"
   id="svg2"
   version="1.1"
   inkscape:version="0.91 r13725"
   sodipodi:docname="jugmk_logo.svg">
  <defs
     id="defs4">
    <clipPath
       id="clipPath3350"
       clipPathUnits="userSpaceOnUse">
      <path
         inkscape:connector-curvature="0"
         id="path3352"
         d="m 0,494.87 722.36,0 L 722.36,0 0,0 0,494.87 Z" />
    </clipPath>
  </defs>
  <sodipodi:namedview
     id="base"
     pagecolor="#ffffff"
     bordercolor="#666666"
     borderopacity="1.0"
     inkscape:pageopacity="0.0"
     inkscape:pageshadow="2"
     inkscape:zoom="0.94082569"
     inkscape:cx="422.41346"
     inkscape:cy="571.54835"
     inkscape:document-units="px"
     inkscape:current-layer="layer1"
     showgrid="false"
     inkscape:window-width="1920"
     inkscape:window-height="1024"
     inkscape:window-x="0"
     inkscape:window-y="24"
     inkscape:window-maximized="1" />
  <metadata
     id="metadata7">
    <rdf:RDF>
      <cc:Work
         rdf:about="">
        <dc:format>image/svg+xml</dc:format>
        <dc:type
           rdf:resource="http://purl.org/dc/dcmitype/StillImage" />
        <dc:title></dc:title>
      </cc:Work>
    </rdf:RDF>
  </metadata>
  <g
     inkscape:label="Layer 1"
     inkscape:groupmode="layer"
     id="layer1">
    <g
       id="g4527"
       transform="matrix(0.74054207,0,0,0.74054207,104.55494,-228.49966)">
      <g
         transform="matrix(1.25,0,0,-1.25,420.43304,817.57133)"
         id="g3354">
        <path
           inkscape:connector-curvature="0"
           id="path3356"
           style="fill:#a12031;fill-opacity:1;fill-rule:evenodd;stroke:none"
           d="m 0,0 c 61.527,-12.376 120.268,33.296 128.826,99.13 5.697,43.817 -7.076,81.814 -40.935,110.774 -47.432,40.57 -116.246,31.437 -153.706,-19.278 -0.983,-1.332 -1.506,-3.279 -3.932,-3.819 14.396,25.384 33.995,44.593 60.616,55.901 53.91,22.903 114.311,3.684 146.506,-46.318 C 174.236,139.136 162.281,61.64 109.211,19.271 76.119,-7.147 38.676,-13.566 -1.881,-0.999 -2.023,0.78 -0.947,0.268 0,0" />
      </g>
      <g
         transform="matrix(1.25,0,0,-1.25,780.53441,510.17458)"
         id="g3358">
        <path
           inkscape:connector-curvature="0"
           id="path3360"
           style="fill:#a12031;fill-opacity:1;fill-rule:evenodd;stroke:none"
           d="m 0,0 c 5.89,0.059 10.31,-2.708 12.314,-8.525 4.862,-14.1 9.632,-28.24 14.088,-42.478 2.467,-7.879 -2.434,-14.723 -11.358,-16.598 -8.124,-1.708 -16.271,-3.293 -24.407,-4.932 -25.022,-5.04 -50.047,-10.069 -75.067,-15.126 -7.848,-1.587 -10.969,0.16 -13.368,7.993 -2.673,8.744 -5.276,17.514 -7.696,26.333 -1.899,6.908 -0.205,10.225 6.145,12.895 30.117,12.662 60.233,25.315 90.356,37.954 C -6.104,-1.271 -3.252,0.144 0,0" />
      </g>
      <g
         transform="matrix(1.25,0,0,-1.25,727.17628,864.18396)"
         id="g3362">
        <path
           inkscape:connector-curvature="0"
           id="path3364"
           style="fill:#a12031;fill-opacity:1;fill-rule:evenodd;stroke:none"
           d="m 0,0 c -3.902,-0.145 -7.025,1.272 -9.914,3.402 -26.389,19.469 -52.793,38.916 -79.166,58.404 -4.471,3.301 -5.635,6.926 -2.777,11.669 5.58,9.257 11.474,18.346 17.642,27.224 3.078,4.432 7.33,4.979 12.365,2.6 C -31.145,88.795 -0.439,74.293 30.242,59.738 40.422,54.909 42.205,47.942 35.586,38.923 27.609,28.055 19.512,17.273 11.498,6.432 8.564,2.465 4.957,-0.177 0,0" />
      </g>
      <g
         transform="matrix(1.25,0,0,-1.25,574.83253,368.78296)"
         id="g3366">
        <path
           inkscape:connector-curvature="0"
           id="path3368"
           style="fill:#a12031;fill-opacity:1;fill-rule:evenodd;stroke:none"
           d="m 0,0 c 1.203,-0.295 2.998,-0.629 4.725,-1.176 10.791,-3.417 21.562,-6.893 32.347,-10.328 9.875,-3.144 12.008,-8.683 6.408,-17.242 -14.21,-21.719 -28.501,-43.387 -42.759,-65.076 -2.194,-3.338 -4.354,-6.696 -6.565,-10.02 -3.176,-4.774 -7.105,-6.237 -12.445,-4.056 -8.318,3.396 -16.563,6.986 -24.723,10.748 -4.824,2.224 -5.951,5.453 -3.9,10.195 11.146,25.791 22.377,51.545 33.506,77.344 C -10.941,-3.896 -6.979,-0.451 0,0" />
      </g>
      <g
         transform="matrix(1.25,0,0,-1.25,523.78266,987.32109)"
         id="g3370">
        <path
           inkscape:connector-curvature="0"
           id="path3372"
           style="fill:#a12031;fill-opacity:1;fill-rule:evenodd;stroke:none"
           d="m 0,0 c -5.828,0 -11.66,-0.104 -17.484,0.027 -7.424,0.168 -12.104,4.303 -13.317,11.654 -4.142,25.113 -8.26,50.229 -12.363,75.35 -0.93,5.694 0.654,8.17 6.377,8.959 8.406,1.16 16.851,2.128 25.308,2.813 6.096,0.493 8.666,-1.335 10.573,-6.907 C 8.088,65.624 17.061,39.344 25.941,13.034 28.551,5.302 25.201,0.719 16.988,0.545 11.328,0.426 5.664,0.523 0,0.523 L 0,0 Z" />
      </g>
      <g
         transform="matrix(1.25,0,0,-1.25,413.09179,380.08421)"
         id="g3374">
        <path
           inkscape:connector-curvature="0"
           id="path3376"
           style="fill:#a12031;fill-opacity:1;fill-rule:evenodd;stroke:none"
           d="m 0,0 c 4.262,-0.076 6.152,-2.238 6.711,-5.496 3.996,-23.27 7.949,-46.547 11.805,-69.84 0.664,-4.021 -1.821,-6.789 -5.088,-8.383 -7.918,-3.863 -15.93,-7.56 -24.049,-10.974 -3.785,-1.592 -6.549,-0.309 -7.988,4.05 -6.561,19.864 -13.381,39.639 -19.997,59.483 -1.762,5.285 -0.282,10.258 4.459,13.047 10.17,5.984 20.602,11.528 30.934,17.244 C -2.02,-0.209 -0.73,0.079 0,0" />
      </g>
      <g
         transform="matrix(1.25,0,0,-1.25,340.45866,912.80696)"
         id="g3378">
        <path
           inkscape:connector-curvature="0"
           id="path3380"
           style="fill:#a12031;fill-opacity:1;fill-rule:evenodd;stroke:none"
           d="m 0,0 c -0.9,0.043 -2.58,1.075 -4.084,2.441 -7.625,6.932 -15.336,13.776 -22.826,20.853 -4.549,4.3 -4.852,8.987 -1.426,14.327 9.777,15.242 19.555,30.483 29.365,45.703 3.063,4.75 5.188,5.209 9.68,1.783 6.08,-4.632 12.094,-9.363 17.964,-14.256 3.765,-3.14 5.014,-6.689 2.646,-11.804 C 23.031,41.115 15.195,22.975 7.258,4.883 6.043,2.115 4.689,-0.185 0,0" />
      </g>
      <g
         transform="matrix(1.25,0,0,-1.25,326.75879,553.28309)"
         id="g3382">
        <path
           inkscape:connector-curvature="0"
           id="path3384"
           style="fill:#a12031;fill-opacity:1;fill-rule:evenodd;stroke:none"
           d="m 0,0 c -0.495,-1.285 -0.835,-2.646 -1.513,-3.842 -3.508,-6.207 -6.997,-12.427 -10.707,-18.53 -2.594,-4.269 -4.563,-4.644 -9.193,-2.217 -13.637,7.145 -27.27,14.297 -40.886,21.477 -4.412,2.325 -5.916,5.375 -3.851,9.57 4.434,9.001 9.098,17.917 14.039,26.689 2.526,4.489 6.226,4.832 10.601,1.577 C -28.777,25.252 -16.092,15.72 -3.334,6.276 -1.091,4.614 0.626,2.92 0,0" />
      </g>
      <g
         transform="matrix(1.25,0,0,-1.25,-49.08659,597.79358)"
         id="g3386">
        <path
           inkscape:connector-curvature="0"
           id="path3388"
           style="fill:#a12031;fill-opacity:1;fill-rule:nonzero;stroke:none"
           d="m 0,0 20.618,0 0,-78.101 c 0,-31.975 -15.201,-41.411 -36.517,-41.411 -5.417,0 -11.707,0.875 -15.726,2.448 l 2.446,16.773 c 2.971,-1.049 6.814,-1.748 11.358,-1.748 10.832,0 17.821,4.892 17.821,24.112 L 0,0 Z" />
      </g>
      <g
         transform="matrix(1.25,0,0,-1.25,26.108785,597.79358)"
         id="g3390">
        <path
           inkscape:connector-curvature="0"
           id="path3392"
           style="fill:#a12031;fill-opacity:1;fill-rule:nonzero;stroke:none"
           d="m 0,0 0,-71.462 c 0,-21.841 8.561,-31.101 20.967,-31.101 13.278,0 21.491,9.26 21.491,31.101 l 0,71.462 20.617,0 0,-69.54 c 0,-34.421 -16.599,-49.972 -42.633,-49.972 -25.509,0 -41.06,15.028 -41.06,49.622 L -20.618,0 0,0 Z" />
      </g>
      <g
         transform="matrix(1.25,0,0,-1.25,230.09491,739.31946)"
         id="g3394">
        <path
           inkscape:connector-curvature="0"
           id="path3396"
           style="fill:#a12031;fill-opacity:1;fill-rule:nonzero;stroke:none"
           d="m 0,0 c -6.814,-2.447 -19.918,-5.766 -33.373,-5.766 -17.472,0 -31.101,4.542 -41.234,14.502 -10.309,9.785 -16.075,25.859 -16.075,44.555 0.175,39.487 26.035,61.153 60.28,61.153 12.579,0 22.364,-2.622 27.256,-4.893 L -7.514,92.603 c -5.416,2.446 -12.231,4.368 -22.714,4.368 -22.19,0 -38.788,-13.803 -38.788,-42.982 0,-28.48 15.201,-42.807 35.993,-42.807 6.464,0 11.007,0.874 13.278,1.922 l 0,30.577 -18.345,0 0,16.423 38.09,0 L 0,0 Z" />
      </g>
      <g
         transform="matrix(1.25,0,0,-1.25,365.82979,685.80996)"
         id="g3398">
        <path
           inkscape:connector-curvature="0"
           id="path3400"
           style="fill:#f8a10e;fill-opacity:1;fill-rule:nonzero;stroke:none"
           d="m 0,0 c -0.698,14.501 -1.571,32.148 -1.397,47.349 l -0.525,0 C -5.241,33.372 -9.609,17.996 -13.978,4.192 l -15.899,-50.145 -15.375,0 -14.328,49.272 c -4.192,14.153 -8.037,29.703 -10.833,44.03 l -0.349,0 c -0.524,-14.851 -1.223,-32.673 -2.097,-48.048 l -2.446,-46.652 -18.87,0 7.863,117.764 25.684,0 14.153,-47.351 c 4.018,-14.328 7.512,-27.78 10.308,-41.06 l 0.35,0 c 2.795,13.105 6.464,26.732 10.658,41.06 l 14.851,47.351 25.509,0 6.815,-117.764 -19.744,0 L 0,0 Z" />
      </g>
      <g
         transform="matrix(1.25,0,0,-1.25,415.03628,597.79358)"
         id="g3402">
        <path
           inkscape:connector-curvature="0"
           id="path3404"
           style="fill:#f8a10e;fill-opacity:1;fill-rule:nonzero;stroke:none"
           d="m 0,0 20.443,0 0,-54.165 0.524,0 c 2.621,4.543 5.242,9.086 7.863,13.28 L 56.087,0 80.723,0 44.03,-50.32 l 38.789,-67.444 -23.762,0 -29.354,53.465 -9.26,-11.88 0,-41.585 -20.443,0 L 0,0 Z" />
      </g>
    </g>
    <g
       id="g4315"
       transform="matrix(0.78105245,0,0,0.78105245,90.075644,242.75465)">
      <g
         id="g4317"
         transform="matrix(1.25,0,0,-1.25,420.43304,817.57133)">
        <path
           d="m 0,0 c 61.527,-12.376 120.268,33.296 128.826,99.13 5.697,43.817 -7.076,81.814 -40.935,110.774 -47.432,40.57 -116.246,31.437 -153.706,-19.278 -0.983,-1.332 -1.506,-3.279 -3.932,-3.819 14.396,25.384 33.995,44.593 60.616,55.901 53.91,22.903 114.311,3.684 146.506,-46.318 C 174.236,139.136 162.281,61.64 109.211,19.271 76.119,-7.147 38.676,-13.566 -1.881,-0.999 -2.023,0.78 -0.947,0.268 0,0"
           style="fill:#a12031;fill-opacity:1;fill-rule:evenodd;stroke:none"
           id="path4319"
           inkscape:connector-curvature="0" />
      </g>
      <g
         id="g4321"
         transform="matrix(1.25,0,0,-1.25,780.53441,510.17458)">
        <path
           d="m 0,0 c 5.89,0.059 10.31,-2.708 12.314,-8.525 4.862,-14.1 9.632,-28.24 14.088,-42.478 2.467,-7.879 -2.434,-14.723 -11.358,-16.598 -8.124,-1.708 -16.271,-3.293 -24.407,-4.932 -25.022,-5.04 -50.047,-10.069 -75.067,-15.126 -7.848,-1.587 -10.969,0.16 -13.368,7.993 -2.673,8.744 -5.276,17.514 -7.696,26.333 -1.899,6.908 -0.205,10.225 6.145,12.895 30.117,12.662 60.233,25.315 90.356,37.954 C -6.104,-1.271 -3.252,0.144 0,0"
           style="fill:#a12031;fill-opacity:1;fill-rule:evenodd;stroke:none"
           id="path4323"
           inkscape:connector-curvature="0" />
      </g>
      <g
         id="g4325"
         transform="matrix(1.25,0,0,-1.25,727.17628,864.18396)">
        <path
           d="m 0,0 c -3.902,-0.145 -7.025,1.272 -9.914,3.402 -26.389,19.469 -52.793,38.916 -79.166,58.404 -4.471,3.301 -5.635,6.926 -2.777,11.669 5.58,9.257 11.474,18.346 17.642,27.224 3.078,4.432 7.33,4.979 12.365,2.6 C -31.145,88.795 -0.439,74.293 30.242,59.738 40.422,54.909 42.205,47.942 35.586,38.923 27.609,28.055 19.512,17.273 11.498,6.432 8.564,2.465 4.957,-0.177 0,0"
           style="fill:#a12031;fill-opacity:1;fill-rule:evenodd;stroke:none"
           id="path4327"
           inkscape:connector-curvature="0" />
      </g>
      <g
         id="g4329"
         transform="matrix(1.25,0,0,-1.25,574.83253,368.78296)">
        <path
           d="m 0,0 c 1.203,-0.295 2.998,-0.629 4.725,-1.176 10.791,-3.417 21.562,-6.893 32.347,-10.328 9.875,-3.144 12.008,-8.683 6.408,-17.242 -14.21,-21.719 -28.501,-43.387 -42.759,-65.076 -2.194,-3.338 -4.354,-6.696 -6.565,-10.02 -3.176,-4.774 -7.105,-6.237 -12.445,-4.056 -8.318,3.396 -16.563,6.986 -24.723,10.748 -4.824,2.224 -5.951,5.453 -3.9,10.195 11.146,25.791 22.377,51.545 33.506,77.344 C -10.941,-3.896 -6.979,-0.451 0,0"
           style="fill:#a12031;fill-opacity:1;fill-rule:evenodd;stroke:none"
           id="path4331"
           inkscape:connector-curvature="0" />
      </g>
      <g
         id="g4333"
         transform="matrix(1.25,0,0,-1.25,523.78266,987.32109)">
        <path
           d="m 0,0 c -5.828,0 -11.66,-0.104 -17.484,0.027 -7.424,0.168 -12.104,4.303 -13.317,11.654 -4.142,25.113 -8.26,50.229 -12.363,75.35 -0.93,5.694 0.654,8.17 6.377,8.959 8.406,1.16 16.851,2.128 25.308,2.813 6.096,0.493 8.666,-1.335 10.573,-6.907 C 8.088,65.624 17.061,39.344 25.941,13.034 28.551,5.302 25.201,0.719 16.988,0.545 11.328,0.426 5.664,0.523 0,0.523 L 0,0 Z"
           style="fill:#a12031;fill-opacity:1;fill-rule:evenodd;stroke:none"
           id="path4335"
           inkscape:connector-curvature="0" />
      </g>
      <g
         id="g4337"
         transform="matrix(1.25,0,0,-1.25,413.09179,380.08421)">
        <path
           d="m 0,0 c 4.262,-0.076 6.152,-2.238 6.711,-5.496 3.996,-23.27 7.949,-46.547 11.805,-69.84 0.664,-4.021 -1.821,-6.789 -5.088,-8.383 -7.918,-3.863 -15.93,-7.56 -24.049,-10.974 -3.785,-1.592 -6.549,-0.309 -7.988,4.05 -6.561,19.864 -13.381,39.639 -19.997,59.483 -1.762,5.285 -0.282,10.258 4.459,13.047 10.17,5.984 20.602,11.528 30.934,17.244 C -2.02,-0.209 -0.73,0.079 0,0"
           style="fill:#a12031;fill-opacity:1;fill-rule:evenodd;stroke:none"
           id="path4339"
           inkscape:connector-curvature="0" />
      </g>
      <g
         id="g4341"
         transform="matrix(1.25,0,0,-1.25,340.45866,912.80696)">
        <path
           d="m 0,0 c -0.9,0.043 -2.58,1.075 -4.084,2.441 -7.625,6.932 -15.336,13.776 -22.826,20.853 -4.549,4.3 -4.852,8.987 -1.426,14.327 9.777,15.242 19.555,30.483 29.365,45.703 3.063,4.75 5.188,5.209 9.68,1.783 6.08,-4.632 12.094,-9.363 17.964,-14.256 3.765,-3.14 5.014,-6.689 2.646,-11.804 C 23.031,41.115 15.195,22.975 7.258,4.883 6.043,2.115 4.689,-0.185 0,0"
           style="fill:#a12031;fill-opacity:1;fill-rule:evenodd;stroke:none"
           id="path4343"
           inkscape:connector-curvature="0" />
      </g>
      <g
         id="g4345"
         transform="matrix(1.25,0,0,-1.25,326.75879,553.28309)">
        <path
           d="m 0,0 c -0.495,-1.285 -0.835,-2.646 -1.513,-3.842 -3.508,-6.207 -6.997,-12.427 -10.707,-18.53 -2.594,-4.269 -4.563,-4.644 -9.193,-2.217 -13.637,7.145 -27.27,14.297 -40.886,21.477 -4.412,2.325 -5.916,5.375 -3.851,9.57 4.434,9.001 9.098,17.917 14.039,26.689 2.526,4.489 6.226,4.832 10.601,1.577 C -28.777,25.252 -16.092,15.72 -3.334,6.276 -1.091,4.614 0.626,2.92 0,0"
           style="fill:#a12031;fill-opacity:1;fill-rule:evenodd;stroke:none"
           id="path4347"
           inkscape:connector-curvature="0" />
      </g>
      <g
         id="g4349"
         transform="matrix(1.25,0,0,-1.25,-49.08659,597.79358)">
        <path
           d="m 0,0 20.618,0 0,-78.101 c 0,-31.975 -15.201,-41.411 -36.517,-41.411 -5.417,0 -11.707,0.875 -15.726,2.448 l 2.446,16.773 c 2.971,-1.049 6.814,-1.748 11.358,-1.748 10.832,0 17.821,4.892 17.821,24.112 L 0,0 Z"
           style="fill:#a12031;fill-opacity:1;fill-rule:nonzero;stroke:none"
           id="path4351"
           inkscape:connector-curvature="0" />
      </g>
      <g
         id="g4353"
         transform="matrix(1.25,0,0,-1.25,26.108785,597.79358)">
        <path
           d="m 0,0 0,-71.462 c 0,-21.841 8.561,-31.101 20.967,-31.101 13.278,0 21.491,9.26 21.491,31.101 l 0,71.462 20.617,0 0,-69.54 c 0,-34.421 -16.599,-49.972 -42.633,-49.972 -25.509,0 -41.06,15.028 -41.06,49.622 L -20.618,0 0,0 Z"
           style="fill:#a12031;fill-opacity:1;fill-rule:nonzero;stroke:none"
           id="path4355"
           inkscape:connector-curvature="0" />
      </g>
      <g
         id="g4357"
         transform="matrix(1.25,0,0,-1.25,230.09491,739.31946)">
        <path
           d="m 0,0 c -6.814,-2.447 -19.918,-5.766 -33.373,-5.766 -17.472,0 -31.101,4.542 -41.234,14.502 -10.309,9.785 -16.075,25.859 -16.075,44.555 0.175,39.487 26.035,61.153 60.28,61.153 12.579,0 22.364,-2.622 27.256,-4.893 L -7.514,92.603 c -5.416,2.446 -12.231,4.368 -22.714,4.368 -22.19,0 -38.788,-13.803 -38.788,-42.982 0,-28.48 15.201,-42.807 35.993,-42.807 6.464,0 11.007,0.874 13.278,1.922 l 0,30.577 -18.345,0 0,16.423 38.09,0 L 0,0 Z"
           style="fill:#a12031;fill-opacity:1;fill-rule:nonzero;stroke:none"
           id="path4359"
           inkscape:connector-curvature="0" />
      </g>
      <g
         id="g4361"
         transform="matrix(1.25,0,0,-1.25,365.82979,685.80996)">
        <path
           d="m 0,0 c -0.698,14.501 -1.571,32.148 -1.397,47.349 l -0.525,0 C -5.241,33.372 -9.609,17.996 -13.978,4.192 l -15.899,-50.145 -15.375,0 -14.328,49.272 c -4.192,14.153 -8.037,29.703 -10.833,44.03 l -0.349,0 c -0.524,-14.851 -1.223,-32.673 -2.097,-48.048 l -2.446,-46.652 -18.87,0 7.863,117.764 25.684,0 14.153,-47.351 c 4.018,-14.328 7.512,-27.78 10.308,-41.06 l 0.35,0 c 2.795,13.105 6.464,26.732 10.658,41.06 l 14.851,47.351 25.509,0 6.815,-117.764 -19.744,0 L 0,0 Z"
           style="fill:#f8a10e;fill-opacity:1;fill-rule:nonzero;stroke:none"
           id="path4363"
           inkscape:connector-curvature="0" />
      </g>
      <g
         id="g4365"
         transform="matrix(1.25,0,0,-1.25,415.03628,597.79358)">
        <path
           d="m 0,0 20.443,0 0,-54.165 0.524,0 c 2.621,4.543 5.242,9.086 7.863,13.28 L 56.087,0 80.723,0 44.03,-50.32 l 38.789,-67.444 -23.762,0 -29.354,53.465 -9.26,-11.88 0,-41.585 -20.443,0 L 0,0 Z"
           style="fill:#f8a10e;fill-opacity:1;fill-rule:nonzero;stroke:none"
           id="path4367"
           inkscape:connector-curvature="0" />
      </g>
      <g
         id="g4369">
        <g
           transform="matrix(1.25,0,0,-1.25,-75.02659,757.28821)"
           id="g4371">
          <path
             inkscape:connector-curvature="0"
             id="path4373"
             style="fill:#a12031;fill-opacity:1;fill-rule:nonzero;stroke:none"
             d="m 0,0 3.618,0 0,-15.442 c 0,-2.121 -0.635,-3.809 -1.906,-5.061 -1.271,-1.254 -2.918,-1.88 -4.941,-1.88 -2.144,0 -3.842,0.556 -5.098,1.668 -1.256,1.111 -1.859,2.732 -1.809,4.863 l 0.03,0.092 3.513,0 c 0,-1.253 0.297,-2.18 0.89,-2.78 0.593,-0.603 1.417,-0.902 2.474,-0.902 0.947,0 1.722,0.363 2.324,1.09 0.604,0.728 0.905,1.698 0.905,2.91 L 0,0 Z" />
        </g>
        <g
           transform="matrix(1.25,0,0,-1.25,-54.38084,777.32721)"
           id="g4375">
          <path
             inkscape:connector-curvature="0"
             id="path4377"
             style="fill:#a12031;fill-opacity:1;fill-rule:nonzero;stroke:none"
             d="M 0,0 5.514,0 2.792,7.119 2.708,7.119 0,0 Z m 6.347,-2.202 -7.179,0 -1.453,-3.831 -2.877,0 6.615,16.654 2.623,0 6.6,-16.654 -2.863,0 -1.466,3.831 z" />
        </g>
        <g
           transform="matrix(1.25,0,0,-1.25,-25.41834,779.56109)"
           id="g4379">
          <path
             inkscape:connector-curvature="0"
             id="path4381"
             style="fill:#a12031;fill-opacity:1;fill-rule:nonzero;stroke:none"
             d="m 0,0 0.324,-1.173 0.084,0 0.325,1.145 4.527,12.436 2.976,0 -6.572,-16.654 -2.609,0 -6.558,16.654 2.976,0 L 0,0 Z" />
        </g>
        <g
           transform="matrix(1.25,0,0,-1.25,-2.375215,777.32721)"
           id="g4383">
          <path
             inkscape:connector-curvature="0"
             id="path4385"
             style="fill:#a12031;fill-opacity:1;fill-rule:nonzero;stroke:none"
             d="M 0,0 5.514,0 2.792,7.119 2.708,7.119 0,0 Z m 6.347,-2.202 -7.179,0 -1.453,-3.831 -2.877,0 6.615,16.654 2.622,0 6.601,-16.654 -2.863,0 -1.466,3.831 z" />
        </g>
        <g
           transform="matrix(1.25,0,0,-1.25,41.120285,757.28821)"
           id="g4387">
          <path
             inkscape:connector-curvature="0"
             id="path4389"
             style="fill:#a12031;fill-opacity:1;fill-rule:nonzero;stroke:none"
             d="m 0,0 0,-14.532 c 0,-2.455 -0.795,-4.378 -2.384,-5.767 -1.591,-1.389 -3.641,-2.084 -6.153,-2.084 -2.471,0 -4.484,0.695 -6.04,2.084 -1.554,1.389 -2.332,3.312 -2.332,5.767 l 0,14.532 3.634,0 0,-14.532 c 0,-1.567 0.433,-2.777 1.3,-3.63 0.868,-0.854 2.014,-1.28 3.438,-1.28 1.475,0 2.662,0.426 3.558,1.28 0.897,0.853 1.346,2.063 1.346,3.63 L -3.633,0 0,0 Z" />
        </g>
        <g
           transform="matrix(1.25,0,0,-1.25,65.23291,779.43658)"
           id="g4391">
          <path
             inkscape:connector-curvature="0"
             id="path4393"
             style="fill:#a12031;fill-opacity:1;fill-rule:nonzero;stroke:none"
             d="m 0,0 c 0,0.677 -0.292,1.226 -0.874,1.645 -0.584,0.418 -1.636,0.819 -3.159,1.2 -2.097,0.552 -3.623,1.184 -4.577,1.894 -0.954,0.71 -1.431,1.781 -1.431,3.21 0,1.401 0.571,2.516 1.713,3.345 1.143,0.828 2.682,1.244 4.619,1.244 1.975,0 3.514,-0.443 4.619,-1.33 1.104,-0.886 1.633,-2.13 1.587,-3.731 l -0.029,-0.085 -2.637,0 c 0,0.876 -0.31,1.588 -0.931,2.136 -0.62,0.548 -1.49,0.823 -2.609,0.823 -1.175,0 -2.062,-0.222 -2.658,-0.665 -0.597,-0.444 -0.896,-1.018 -0.896,-1.723 0,-0.695 0.27,-1.236 0.811,-1.622 0.541,-0.387 1.648,-0.783 3.322,-1.195 2.02,-0.552 3.511,-1.2 4.47,-1.944 0.959,-0.743 1.438,-1.805 1.438,-3.187 0,-1.468 -0.597,-2.602 -1.791,-3.403 -1.194,-0.8 -2.816,-1.201 -4.865,-1.201 -1.9,0 -3.493,0.405 -4.781,1.215 -1.289,0.811 -1.904,2.093 -1.848,3.846 l 0.014,0.086 2.651,0 c 0,-1.03 0.384,-1.783 1.15,-2.259 0.767,-0.477 1.704,-0.715 2.814,-0.715 1.231,0 2.186,0.224 2.863,0.672 C -0.338,-1.296 0,-0.715 0,0" />
        </g>
        <g
           transform="matrix(1.25,0,0,-1.25,92.80791,775.39733)"
           id="g4395">
          <path
             inkscape:connector-curvature="0"
             id="path4397"
             style="fill:#a12031;fill-opacity:1;fill-rule:nonzero;stroke:none"
             d="m 0,0 -7.489,0 0,-5.404 8.716,0 0,-2.173 -11.495,0 0,16.654 11.495,0 0,-2.186 -8.716,0 0,-4.69 L 0,2.201 0,0 Z" />
        </g>
        <g
           transform="matrix(1.25,0,0,-1.25,109.07204,773.55646)"
           id="g4399">
          <path
             inkscape:connector-curvature="0"
             id="path4401"
             style="fill:#a12031;fill-opacity:1;fill-rule:nonzero;stroke:none"
             d="m 0,0 3.723,0 c 1.128,0 1.955,0.224 2.482,0.672 0.526,0.447 0.79,1.091 0.79,1.93 0,0.877 -0.266,1.565 -0.797,2.065 -0.531,0.5 -1.356,0.751 -2.475,0.751 L 0,5.418 0,0 Z m 0,-2.202 0,-6.848 -2.779,0 0,16.654 6.502,0 C 5.65,7.604 7.143,7.176 8.201,6.318 9.258,5.461 9.788,4.26 9.788,2.716 9.788,1.867 9.555,1.144 9.089,0.543 8.625,-0.058 7.94,-0.544 7.037,-0.915 8.015,-1.2 8.718,-1.687 9.146,-2.374 9.574,-3.06 9.788,-3.903 9.788,-4.904 l 0,-1.687 c 0,-0.429 0.025,-0.848 0.077,-1.257 0.052,-0.411 0.138,-0.72 0.261,-0.93 l 0,-0.272 -2.863,0 C 7.15,-8.831 7.08,-8.487 7.051,-8.021 7.023,-7.553 7.009,-7.072 7.009,-6.576 l 0,1.658 c 0,0.857 -0.244,1.525 -0.733,2.001 -0.489,0.477 -1.194,0.715 -2.115,0.715 l -4.161,0 z" />
        </g>
        <g
           transform="matrix(1.25,0,0,-1.25,153.38479,781.13708)"
           id="g4403">
          <path
             inkscape:connector-curvature="0"
             id="path4405"
             style="fill:#a12031;fill-opacity:1;fill-rule:nonzero;stroke:none"
             d="m 0,0 c -0.598,-0.858 -1.552,-1.623 -2.863,-2.296 -1.311,-0.672 -3.002,-1.008 -5.075,-1.008 -2.572,0 -4.687,0.841 -6.347,2.524 -1.659,1.681 -2.489,3.856 -2.489,6.523 l 0,4.608 c 0,2.667 0.802,4.841 2.407,6.523 1.605,1.683 3.667,2.523 6.189,2.523 2.532,0 4.506,-0.646 5.92,-1.939 1.416,-1.293 2.103,-2.98 2.064,-5.062 l -0.045,-0.09 -3.453,0 c 0,1.242 -0.382,2.242 -1.144,3 -0.763,0.757 -1.857,1.136 -3.282,1.136 -1.505,0 -2.719,-0.57 -3.641,-1.712 -0.921,-1.142 -1.382,-2.591 -1.382,-4.349 l 0,-4.638 c 0,-1.778 0.481,-3.24 1.443,-4.387 0.961,-1.146 2.215,-1.719 3.76,-1.719 1.166,0 2.087,0.134 2.766,0.401 0.677,0.268 1.191,0.594 1.539,0.978 l 0,4.561 -4.559,0 0,2.758 L 0,8.335 0,0 Z" />
        </g>
        <g
           transform="matrix(1.25,0,0,-1.25,169.21841,773.55646)"
           id="g4407">
          <path
             inkscape:connector-curvature="0"
             id="path4409"
             style="fill:#a12031;fill-opacity:1;fill-rule:nonzero;stroke:none"
             d="m 0,0 3.724,0 c 1.128,0 1.955,0.224 2.482,0.672 0.526,0.447 0.789,1.091 0.789,1.93 0,0.877 -0.266,1.565 -0.796,2.065 -0.532,0.5 -1.357,0.751 -2.475,0.751 L 0,5.418 0,0 Z m 0,-2.202 0,-6.848 -2.778,0 0,16.654 6.502,0 C 5.651,7.604 7.143,7.176 8.201,6.318 9.258,5.461 9.788,4.26 9.788,2.716 9.788,1.867 9.555,1.144 9.09,0.543 8.625,-0.058 7.94,-0.544 7.037,-0.915 8.015,-1.2 8.718,-1.687 9.146,-2.374 9.574,-3.06 9.788,-3.903 9.788,-4.904 l 0,-1.687 c 0,-0.429 0.025,-0.848 0.077,-1.257 0.052,-0.411 0.139,-0.72 0.261,-0.93 l 0,-0.272 -2.863,0 C 7.15,-8.831 7.08,-8.487 7.051,-8.021 7.023,-7.553 7.009,-7.072 7.009,-6.576 l 0,1.658 c 0,0.857 -0.244,1.525 -0.733,2.001 -0.489,0.477 -1.194,0.715 -2.115,0.715 l -4.161,0 z" />
        </g>
        <g
           transform="matrix(1.25,0,0,-1.25,206.85829,772.26984)"
           id="g4411">
          <path
             inkscape:connector-curvature="0"
             id="path4413"
             style="fill:#a12031;fill-opacity:1;fill-rule:nonzero;stroke:none"
             d="m 0,0 c 0,1.438 -0.386,2.568 -1.156,3.388 -0.772,0.819 -1.825,1.229 -3.159,1.229 -1.327,0 -2.371,-0.41 -3.131,-1.229 C -8.208,2.568 -8.589,1.438 -8.589,0 l 0,-3.488 c 0,-1.468 0.382,-2.613 1.15,-3.432 0.765,-0.819 1.816,-1.229 3.152,-1.229 1.334,0 2.383,0.41 3.145,1.229 C -0.381,-6.101 0,-4.956 0,-3.488 L 0,0 Z m 2.778,-3.488 c 0,-2.04 -0.651,-3.689 -1.953,-4.948 -1.303,-1.257 -3.006,-1.886 -5.112,-1.886 -2.097,0 -3.802,0.632 -5.113,1.894 -1.311,1.263 -1.968,2.909 -1.968,4.94 l 0,3.473 c 0,2.021 0.652,3.662 1.954,4.925 1.302,1.263 3.002,1.895 5.099,1.895 2.106,0 3.814,-0.632 5.126,-1.895 1.312,-1.263 1.967,-2.904 1.967,-4.925 l 0,-3.473 z" />
        </g>
        <g
           transform="matrix(1.25,0,0,-1.25,239.33753,764.05083)"
           id="g4415">
          <path
             inkscape:connector-curvature="0"
             id="path4417"
             style="fill:#a12031;fill-opacity:1;fill-rule:nonzero;stroke:none"
             d="m 0,0 0,-10.964 c 0,-1.859 -0.655,-3.312 -1.967,-4.36 -1.311,-1.049 -3.015,-1.573 -5.112,-1.573 -2.078,0 -3.775,0.524 -5.092,1.573 -1.316,1.048 -1.975,2.501 -1.975,4.36 l 0,10.964 2.765,0 0,-10.964 c 0,-1.173 0.397,-2.092 1.192,-2.76 0.794,-0.667 1.831,-1.001 3.11,-1.001 1.287,0 2.329,0.331 3.124,0.995 0.794,0.663 1.191,1.584 1.191,2.766 L -2.764,0 0,0 Z" />
        </g>
        <g
           transform="matrix(1.25,0,0,-1.25,254.88804,774.61121)"
           id="g4419">
          <path
             inkscape:connector-curvature="0"
             id="path4421"
             style="fill:#a12031;fill-opacity:1;fill-rule:nonzero;stroke:none"
             d="M 0,0 3.794,0 C 4.894,0 5.729,0.3 6.297,0.9 6.866,1.501 7.15,2.229 7.15,3.088 7.15,3.965 6.866,4.713 6.297,5.332 5.729,5.951 4.894,6.262 3.794,6.262 L 0,6.262 0,0 Z m 0,-2.202 0,-6.004 -2.778,0 0,16.654 6.572,0 C 5.703,8.448 7.205,7.953 8.3,6.962 9.395,5.97 9.943,4.688 9.943,3.116 9.943,1.534 9.395,0.252 8.3,-0.729 7.205,-1.711 5.703,-2.202 3.794,-2.202 l -3.794,0 z" />
        </g>
        <g
           transform="matrix(1.25,0,0,-1.25,291.96141,778.50396)"
           id="g4423">
          <path
             inkscape:connector-curvature="0"
             id="path4425"
             style="fill:#a12031;fill-opacity:1;fill-rule:nonzero;stroke:none"
             d="m 0,0 0.09,0 6.294,16.973 4.635,0 0,-22.065 -3.633,0 0,15.852 -0.09,0.014 -5.995,-15.866 -2.497,0 -6.099,16.17 -0.09,-0.03 0,-16.14 -3.633,0 0,22.065 4.769,0 L 0,0 Z" />
        </g>
        <g
           transform="matrix(1.25,0,0,-1.25,322.95016,777.32721)"
           id="g4427">
          <path
             inkscape:connector-curvature="0"
             id="path4429"
             style="fill:#a12031;fill-opacity:1;fill-rule:nonzero;stroke:none"
             d="M 0,0 5.515,0 2.793,7.119 2.708,7.119 0,0 Z m 6.347,-2.202 -7.179,0 -1.452,-3.831 -2.878,0 6.615,16.654 2.623,0 6.601,-16.654 -2.864,0 -1.466,3.831 z" />
        </g>
        <g
           transform="matrix(1.25,0,0,-1.25,361.82828,778.06083)"
           id="g4431">
          <path
             inkscape:connector-curvature="0"
             id="path4433"
             style="fill:#a12031;fill-opacity:1;fill-rule:nonzero;stroke:none"
             d="m 0,0 0.028,-0.085 c 0.047,-1.801 -0.539,-3.186 -1.756,-4.153 -1.217,-0.968 -2.795,-1.451 -4.731,-1.451 -1.946,0 -3.571,0.638 -4.873,1.916 -1.303,1.276 -1.953,2.916 -1.953,4.918 l 0,3.473 c 0,1.992 0.65,3.626 1.953,4.903 1.302,1.278 2.927,1.917 4.873,1.917 1.992,0 3.587,-0.486 4.78,-1.452 1.194,-0.967 1.768,-2.342 1.721,-4.125 l -0.028,-0.085 -2.666,0 c 0,1.153 -0.333,2.021 -1,2.602 C -4.32,8.959 -5.256,9.25 -6.459,9.25 -7.616,9.25 -8.58,8.807 -9.351,7.92 -10.122,7.034 -10.507,5.937 -10.507,4.633 l 0,-3.488 c 0,-1.326 0.385,-2.434 1.156,-3.325 0.771,-0.891 1.735,-1.337 2.892,-1.337 1.193,0 2.124,0.291 2.792,0.872 0.668,0.582 1.001,1.463 1.001,2.645 L 0,0 Z" />
        </g>
        <g
           transform="matrix(1.25,0,0,-1.25,386.08616,775.39733)"
           id="g4435">
          <path
             inkscape:connector-curvature="0"
             id="path4437"
             style="fill:#a12031;fill-opacity:1;fill-rule:nonzero;stroke:none"
             d="m 0,0 -7.487,0 0,-5.404 8.715,0 0,-2.173 -11.496,0 0,16.654 11.496,0 0,-2.186 -8.715,0 0,-4.69 L 0,2.201 0,0 Z" />
        </g>
        <g
           transform="matrix(1.25,0,0,-1.25,402.35078,766.78408)"
           id="g4439">
          <path
             inkscape:connector-curvature="0"
             id="path4441"
             style="fill:#a12031;fill-opacity:1;fill-rule:nonzero;stroke:none"
             d="m 0,0 0,-12.295 3.16,0 c 1.184,0 2.191,0.443 3.017,1.331 0.827,0.885 1.242,1.99 1.242,3.316 l 0,3.016 c 0,1.306 -0.415,2.403 -1.242,3.295 C 5.351,-0.446 4.344,0 3.16,0 L 0,0 Z m -2.778,-14.468 0,16.655 5.938,0 c 1.984,0 3.652,-0.641 5.005,-1.922 1.356,-1.283 2.031,-2.919 2.031,-4.911 l 0,-3.002 c 0,-2.002 -0.675,-3.639 -2.031,-4.912 -1.353,-1.272 -3.021,-1.908 -5.005,-1.908 l -5.938,0 z" />
        </g>
        <g
           transform="matrix(1.25,0,0,-1.25,440.22678,772.26984)"
           id="g4443">
          <path
             inkscape:connector-curvature="0"
             id="path4445"
             style="fill:#a12031;fill-opacity:1;fill-rule:nonzero;stroke:none"
             d="m 0,0 c 0,1.438 -0.386,2.568 -1.157,3.388 -0.771,0.819 -1.824,1.229 -3.159,1.229 -1.327,0 -2.37,-0.41 -3.131,-1.229 C -8.209,2.568 -8.589,1.438 -8.589,0 l 0,-3.488 c 0,-1.468 0.383,-2.613 1.15,-3.432 0.765,-0.819 1.816,-1.229 3.151,-1.229 1.335,0 2.384,0.41 3.145,1.229 C -0.381,-6.101 0,-4.956 0,-3.488 L 0,0 Z m 2.777,-3.488 c 0,-2.04 -0.65,-3.689 -1.953,-4.948 -1.302,-1.257 -3.006,-1.886 -5.112,-1.886 -2.097,0 -3.801,0.632 -5.112,1.894 -1.312,1.263 -1.968,2.909 -1.968,4.94 l 0,3.473 c 0,2.021 0.651,3.662 1.954,4.925 1.302,1.263 3.001,1.895 5.098,1.895 2.106,0 3.815,-0.632 5.127,-1.895 1.311,-1.263 1.966,-2.904 1.966,-4.925 l 0,-3.473 z" />
        </g>
        <g
           transform="matrix(1.25,0,0,-1.25,472.69741,784.86871)"
           id="g4447">
          <path
             inkscape:connector-curvature="0"
             id="path4449"
             style="fill:#a12031;fill-opacity:1;fill-rule:nonzero;stroke:none"
             d="m 0,0 -2.764,0 -8.321,12.28 -0.084,-0.028 0,-12.252 -2.778,0 0,16.654 2.778,0 8.32,-12.279 0.085,0.028 0,12.251 2.764,0 L 0,0 Z" />
        </g>
        <path
           inkscape:connector-curvature="0"
           id="path4451"
           style="fill:#a12031;fill-opacity:1;fill-rule:nonzero;stroke:none"
           d="m 488.47716,784.86871 -3.45375,0 0,-20.8175 3.45375,0 0,20.8175 z" />
        <g
           transform="matrix(1.25,0,0,-1.25,505.38179,777.32721)"
           id="g4453">
          <path
             inkscape:connector-curvature="0"
             id="path4455"
             style="fill:#a12031;fill-opacity:1;fill-rule:nonzero;stroke:none"
             d="M 0,0 5.515,0 2.792,7.119 2.708,7.119 0,0 Z m 6.347,-2.202 -7.179,0 -1.453,-3.831 -2.876,0 6.613,16.654 2.624,0 6.6,-16.654 -2.863,0 -1.466,3.831 z" />
        </g>
      </g>
    </g>
  </g>
</svg>
