<?xml version="1.0" encoding="UTF-8"?>
<svg width="224px" height="44px" viewBox="0 0 224 44" version="1.1" xmlns="http://www.w3.org/2000/svg" xmlns:xlink="http://www.w3.org/1999/xlink">
    <!-- Generator: Sketch 53.2 (72643) - https://sketchapp.com -->
    <title>intertec_logo</title>
    <desc>Created with Sketch.</desc>
    <g  stroke="none" stroke-width="1" fill="none" fill-rule="evenodd">
        <g id="Home-page-v-2.2" transform="translate(-144.000000, -60.000000)" fill-rule="nonzero">
            <g transform="translate(0.000000, -236.000000)">
                <g id="intertec_logo" transform="translate(143.000000, 296.000000)">
                    <g id="Group_3" transform="translate(58.235000, 9.704000)" fill="#292929">
                        <polygon id="Path_1" points="3.353 1.68 3.353 23.172 0 23.172 0 1.68"></polygon>
                        <g id="Group_1" transform="translate(5.738000, 1.676000)">
                            <path d="M23.382,21.502 L19.991,21.502 L19.991,11.192 C19.991,6.88417895 16.498821,3.392 12.191,3.392 C7.88317895,3.392 4.391,6.88417895 4.391,11.192 L4.391,21.502 L0.999,21.502 L0.999,11.192 C0.999,5.01138136 6.00938136,0.001 12.19,0.001 C18.3706186,0.001 23.381,5.01138136 23.381,11.192 L23.382,21.502 Z" id="Path_2"></path>
                        </g>
                        <polygon id="Path_3" points="29.868 1.68 29.868 5.033 39.382 5.033 39.382 23.172 42.735 23.172 42.735 5.033 52.249 5.033 52.249 1.68"></polygon>
                        <path d="M98.07,7.159 C95.43157,2.91609705 90.2994896,0.937173016 85.495526,2.310298 C80.6915624,3.68342299 77.3805582,8.07564811 77.383,13.072 L77.3829987,23.382 L80.774,23.382 L80.774,13.072 C80.7741816,9.36076253 83.3892504,6.16357161 87.0267375,5.42738461 C90.6642246,4.69119762 94.316718,6.61990353 95.76,10.039 L98.07,7.159 Z" id="Path_4"></path>
                        <path d="M64.346,4.395 L74.656,4.395 L74.656,0.995 L64.346,0.995 C58.1653814,0.995 53.155,6.00538136 53.155,12.186 C53.155,18.3666186 58.1653814,23.377 64.346,23.377 L74.656,23.377 L74.656,19.995 L64.346,19.995 C60.6870458,19.9895536 57.5223497,17.4445793 56.732,13.872 L67.172,13.872 L67.172,10.519 L56.732,10.519 C57.521946,6.94602329 60.6867451,4.40055048 64.346,4.395 Z" id="Path_5"></path>
                        <path d="M133.904,4.395 L144.214,4.395 L144.214,0.995 L133.904,0.995 C127.723381,0.995 122.713,6.00538136 122.713,12.186 C122.713,18.3666186 127.723381,23.377 133.904,23.377 L144.214,23.377 L144.214,19.995 L133.904,19.995 C130.245178,19.9891783 127.080688,17.4443694 126.29,13.872 L136.73,13.872 L136.73,10.519 L126.287,10.519 C127.07719,6.94492784 130.243621,4.39914574 133.904,4.395 L133.904,4.395 Z" id="Path_6"></path>
                        <g id="Group_2" transform="translate(145.163000, 0.000000)">
                            <path d="M21.502,0.995 L21.502,4.386 L11.195,4.386 C6.88717895,4.386 3.395,7.87817895 3.395,12.186 C3.395,16.493821 6.88717895,19.986 11.195,19.986 L21.505,19.986 L21.505,23.378 L11.195,23.378 C5.01438136,23.378 0.004,18.3676186 0.004,12.187 C0.004,6.00638136 5.01438136,0.996 11.195,0.996 L21.502,0.995 Z" id="Path_7"></path>
                        </g>
                        <polygon id="Path_8" points="99.256 1.68 99.256 5.033 108.77 5.033 108.77 23.172 112.123 23.172 112.123 5.033 121.637 5.033 121.637 1.68"></polygon>
                    </g>
                    <g id="Group_5">
                        <path d="M23.095,0 C11.7288929,0.00524644617 2.21858748,8.62769587 1.10296339,19.9389204 C-0.0126606974,31.2501449 7.62992282,41.5643808 18.776,43.79 L18.776,40.012 C9.67438666,37.7964117 3.68108058,29.1077204 4.84283775,19.8126401 C6.00459492,10.5175599 13.9520582,3.57127292 23.319,3.664 L23.319,5.43 C14.9326056,5.3431096 7.7875949,11.5007103 6.63536481,19.808028 C5.48313472,28.1153457 10.6825392,35.9851243 18.776,38.184 L18.776,35.107 L27.414,35.107 L27.414,43.791 C38.5600772,41.5653808 46.2026607,31.2511449 45.0870366,19.9399204 C43.9714125,8.62869587 34.4611071,0.00624644617 23.095,0.001 L23.095,0 Z M23.095,31.194 C19.4191973,31.1960226 16.1042131,28.9833289 14.6961426,25.5879103 C13.2880721,22.1924917 14.0642826,18.2831912 16.6627527,15.6832906 C19.2612227,13.0833899 23.1700954,12.3050279 26.5662885,13.7112294 C29.9624816,15.1174309 32.1769994,18.4311967 32.177,22.107 C32.1777958,24.5163998 31.2213601,26.8274185 29.5181259,28.5315903 C27.8148918,30.2357622 25.5043999,31.1934697 23.095,31.194 L23.095,31.194 Z" id="Path_9" fill="#B0113D"></path>
                        <g id="Group_4" transform="translate(16.796000, 16.861000)" fill="#871038">
                            <path d="M13.703,0 C16.4182895,3.82085718 15.7789143,9.08060418 12.2273027,12.1396565 C8.67569108,15.1987089 3.37926944,15.051546 0.003,11.8 L6.448,18.249 L10.608,18.249 L10.608,22.411 L14.119,25.924 C20.044648,23.6687538 24.7208181,18.9838472 26.965,13.054 L13.703,0 Z" id="Path_10"></path>
                        </g>
                    </g>
                </g>
            </g>
        </g>
    </g>
</svg>