<?xml version="1.0" encoding="utf-8"?>
<!-- Generator: Adobe Illustrator 19.0.1, SVG Export Plug-In . SVG Version: 6.00 Build 0)  -->
<svg version="1.1" id="Layer_1" xmlns="http://www.w3.org/2000/svg" xmlns:xlink="http://www.w3.org/1999/xlink" x="0px" y="0px"
	 viewBox="0 0 568 203" style="enable-background:new 0 0 568 203;" xml:space="preserve">
<style type="text/css">
	.st0{fill-rule:evenodd;clip-rule:evenodd;fill:#FBA91E;}
	.st1{fill:#A22E36;}
	.st2{fill:#FFFFFF;}
</style>
<polygon class="st0" points="567.9,203.3 567.9,0.4 373.4,0.4 373.4,90.6 263.6,90.6 263.6,113.2 396,113.2 396,23 429.8,23 
	429.8,62.4 452.3,62.4 452.3,23 489,23 489,62.4 511.5,62.4 511.5,23 545.3,23 545.3,203.3 "/>
<g>
	<path class="st1" d="M0.9,192l7.6-7.5c0.9-0.8,2.1-0.9,3,0c1.3,1.3,2.7,2.3,5.7,2.3c3.1,0,6.6-2.9,6.6-8.5v-52.6
		c0-1.1,0.9-2.1,2.1-2.1h13.6c1.2,0,2.1,1,2.1,2.1v52.7c0,15.5-10.9,24.4-24,24.4c-9.7,0-15.1-5.8-17-8.1
		C0.1,193.9,0.2,192.7,0.9,192z"/>
	<path class="st1" d="M49.1,198.9L84,123.8c0.3-0.7,1.1-1.2,1.9-1.2H87c0.8,0,1.6,0.6,1.9,1.2l34.9,75.1c0.7,1.5-0.2,2.9-1.9,2.9
		h-12.4c-2,0-2.9-0.7-3.9-2.8l-4-8.8H71.3l-4,8.9c-0.6,1.3-1.8,2.7-4,2.7H51C49.3,201.8,48.4,200.3,49.1,198.9z M95,175l-8.5-18.4
		h-0.1L78,175H95z"/>
	<path class="st1" d="M116.7,126.6c-0.7-1.5,0.2-2.9,1.9-2.9h14.8c0.9,0,1.7,0.7,1.9,1.2l18.4,40.7h0.7l18.4-40.7
		c0.2-0.6,1-1.2,1.9-1.2h14.8c1.7,0,2.6,1.5,1.9,2.9l-35,75.1c-0.3,0.7-1,1.2-1.9,1.2h-1.1c-0.9,0-1.6-0.6-1.9-1.2L116.7,126.6z"/>
	<path class="st1" d="M184.3,198.9l34.9-75.1c0.3-0.7,1.1-1.2,1.9-1.2h1.1c0.8,0,1.6,0.6,1.9,1.2l34.9,75.1c0.7,1.5-0.2,2.9-1.9,2.9
		h-12.4c-2,0-2.9-0.7-3.9-2.8l-4-8.8h-30.4l-4,8.9c-0.6,1.3-1.8,2.7-4,2.7h-12.3C184.6,201.8,183.7,200.3,184.3,198.9z M230.2,175
		l-8.5-18.4h-0.1l-8.4,18.4H230.2z"/>
</g>
<g>
	<path class="st2" d="M265.9,191.4l1-1.3c0.8-0.9,1.6-1.2,2.5-0.4c1.1,1,9.4,8.6,20.6,8.6c10.2,0,18.7-6.8,18.7-15
		c0-9.9-8.1-14.4-21.6-19c-12.9-4.6-21.5-9.1-21.5-22c0-8.4,6.7-19.8,24.1-19.8c11,0,19.2,5.7,19.2,5.7c0.4,0.3,1.2,1.1,0.4,2.3
		c-0.3,0.4-0.7,1-0.9,1.5c-0.7,0.9-1.3,1.2-2.5,0.6c-0.3-0.2-7.8-5.2-16.4-5.2c-13.7,0-18.9,8.5-18.9,14.8c0,9.5,7.3,13.6,18.5,17.3
		c15.3,5.2,25,10.6,25,23.5c0,11.2-11.5,19.9-24.3,19.9c-13.3,0-22.2-7.8-23.7-9.1C265.6,193.2,265,192.6,265.9,191.4z"/>
	<path class="st2" d="M331.2,125.3c0-1,0.7-1.7,1.7-1.7h2c1,0,1.7,0.7,1.7,1.7v34.5l37.9-35.4c0.9-0.8,1.2-0.8,2.2-0.8h3.1
		c1.2,0,1.3,1.2,0.7,1.9l-38.8,36l40.1,38.3c0.7,0.6,0.4,1.9-1,1.9h-3.6c-1,0-1.6-0.2-2.5-1.1l-38.2-37v36.7c0,1.1-0.8,1.5-1.7,1.5
		h-2.2c-0.9,0-1.5-0.6-1.5-1.5V125.3z"/>
	<path class="st2" d="M425.9,122.6c22.4,0,40.3,18,40.3,40.3c0,22.4-17.9,40.1-40.3,40.1c-22.3,0-40.2-17.6-40.2-40.1
		C385.8,140.5,403.6,122.6,425.9,122.6z M425.9,198c19.5,0,35.4-15.6,35.4-35.1s-15.8-35.4-35.4-35.4s-35.3,15.8-35.3,35.4
		S406.4,198,425.9,198z"/>
	<path class="st2" d="M484.3,125.1c0-0.8,0.7-1.5,1.5-1.5h24c13.8,0,25.2,11.3,25.2,25c0,13.9-11.4,25.3-25.1,25.3h-20.3v26.3
		c0,0.8-0.7,1.5-1.8,1.5h-2c-0.8,0-1.5-0.7-1.5-1.5V125.1z M509.5,168.9c10.9,0,20.2-9,20.2-20.3c0-10.9-9.3-19.6-20.3-19.6h-19.9
		v39.9H509.5z"/>
</g>
</svg>
